<svg width="133" height="48" viewBox="0 0 133 48" fill="none" xmlns="http://www.w3.org/2000/svg">
<path d="M82.0383 27.5732C81.8291 28.4945 81.6192 29.4172 81.4084 30.3413H80.5942L79.96 27.551L79.9117 27.5651V30.3243H79.293V26.9457H80.3714L80.9982 29.8236C81.2228 28.7956 81.4251 27.8699 81.6305 26.9309H82.7034V30.3339H82.0711V27.5896L82.0383 27.5732Z" fill="#121314"/>
<path d="M77.5297 30.3413H76.8262V27.6338L75.8828 27.5773V26.9309H78.4406V27.5699L77.5304 27.6301L77.5297 30.3413Z" fill="#121314"/>
<path d="M12.8585 35.807C12.0794 39.36 11.2941 42.913 10.5298 46.4703C10.414 47.0103 10.1508 47.243 9.59917 47.2367C8.14848 47.2209 6.69569 47.2061 5.245 47.2451C4.58598 47.263 4.30595 47.0346 4.17014 46.3755C3.68483 44.0247 3.12266 41.6908 2.60787 39.3474C1.78181 35.5898 0.964525 31.8301 0.156014 28.0682C-0.0692737 27.0302 -0.042955 26.9955 0.972947 26.9744C1.7604 26.9586 2.55207 26.965 3.33637 26.9744C4.39964 26.985 4.40385 26.9892 4.62914 28.0072C5.44608 31.6841 6.2616 35.3613 7.07573 39.0389C7.14626 39.3548 7.25364 39.6643 7.39155 40.1485C8.28639 36.0839 9.13912 32.2066 9.9929 28.3283C10.0466 28.0861 10.1287 27.8493 10.1655 27.604C10.2319 27.1587 10.4814 26.9723 10.9235 26.9723C12.251 26.9818 13.5775 26.9892 14.904 26.9723C15.5061 26.9639 15.6619 27.3261 15.7672 27.8145C16.5112 31.2535 17.2625 34.6904 18.0212 38.1251C18.2075 38.9737 18.4012 39.819 18.6339 40.8539C18.777 40.5212 18.8897 40.3433 18.9328 40.1485C19.8414 36.0702 20.7646 31.9939 21.6247 27.904C21.7763 27.1871 22.0458 26.9176 22.7627 26.9565C23.6313 27.0071 24.504 26.9565 25.3746 26.9744C26.2452 26.9923 26.3221 27.0965 26.141 27.9272C25.662 30.1516 25.1641 32.3719 24.6745 34.5942C23.8576 38.3097 23.041 42.0249 22.2248 45.7397C22.1985 45.8618 22.1806 45.985 22.1521 46.106C21.89 47.2146 21.889 47.2219 20.7636 47.2293C19.3539 47.2377 17.9443 47.2398 16.5336 47.2293C15.5346 47.2209 15.5093 47.2146 15.2903 46.2513C14.7513 43.871 14.2376 41.4845 13.7112 39.101C13.4719 38.0125 13.2322 36.9247 12.9922 35.8375L12.8585 35.807Z" fill="#121314"/>
<path d="M8.87649 21.8286C6.68151 21.875 4.56653 21.5497 2.7158 20.2779C1.08404 19.1557 0.183942 17.5671 0.0207655 15.5911C-0.0550324 14.6836 0.0376095 14.6026 0.968239 14.5815C1.92203 14.5605 2.87687 14.5815 3.83172 14.5815C4.38967 14.5815 4.76971 14.7131 4.83288 15.39C4.96342 16.7849 5.85931 17.4955 7.1584 17.7787C8.30484 18.0314 9.44813 18.1167 10.6051 17.8145C11.8242 17.4987 12.4232 16.867 12.4432 15.7974C12.4621 14.8573 11.9758 14.1973 10.823 13.8888C9.34917 13.493 7.8269 13.2572 6.34989 12.8592C5.3482 12.6054 4.37419 12.2528 3.4422 11.8065C1.29038 10.7274 0.327115 8.84194 0.351329 6.52273C0.377647 4.03509 1.69779 2.25278 3.97489 1.35584C6.93838 0.185185 9.98819 0.237823 12.958 1.3769C15.1403 2.2191 16.4142 3.88981 16.7658 6.21322C16.9121 7.18175 16.7784 7.31124 15.8299 7.34282C15.2498 7.36177 14.6645 7.30913 14.0876 7.35546C12.9801 7.44283 12.0589 7.38493 11.8484 5.95319C11.7431 5.24048 11.022 4.94466 10.3861 4.7299C9.1681 4.31617 7.9448 4.37407 6.72046 4.75411C5.95616 4.99098 5.52875 5.48367 5.474 6.27112C5.42452 7.0291 5.6656 7.70918 6.37831 8.03658C7.09392 8.35606 7.83752 8.60874 8.59961 8.7914C10.0829 9.16408 11.6031 9.40516 13.0675 9.83784C13.9391 10.1073 14.7642 10.5089 15.5141 11.0285C18.446 13.0287 18.2302 18.3619 15.0603 20.3411C13.5781 21.2665 11.9568 21.6834 10.2451 21.8244C9.79027 21.8602 9.33233 21.8286 8.87649 21.8286Z" fill="#121314"/>
<path d="M38.9664 8.30636C40.8108 6.21771 42.9595 5.90715 45.3187 6.58406C47.0557 7.08307 48.2664 8.22214 48.9549 9.89285C50.0876 12.6658 50.1129 15.4566 48.9191 18.2148C47.1641 22.2826 41.6498 22.7911 39.3591 20.1572C39.3127 20.1035 39.2169 20.0929 38.9938 19.9992C38.9938 21.1909 38.9938 22.3258 38.9938 23.4607C38.9938 24.3734 38.979 25.2861 38.9938 26.1978C39.0043 26.761 38.7832 27.0453 38.1947 27.04C37.1995 27.0239 36.2043 27.0239 35.2091 27.04C34.6249 27.0495 34.3764 26.7821 34.4027 26.2115C34.4164 25.922 34.4027 25.6314 34.4027 25.3409C34.4027 19.656 34.4027 13.974 34.4027 8.29478C34.4027 8.08423 34.3975 7.88 34.4027 7.67261C34.4312 6.64933 34.4669 6.60091 35.4407 6.57985C36.2703 6.56301 37.0999 6.56301 37.9294 6.57985C38.858 6.5988 38.859 6.61143 38.9274 7.56522C38.9411 7.72735 38.9453 7.89158 38.9664 8.30636ZM45.1881 14.0059C45.0702 13.2827 45.0208 12.6184 44.847 11.9889C44.3923 10.3434 43.2111 9.98865 42.0815 9.94759C40.6624 9.90022 39.6117 10.7256 39.2264 12.0731C38.8307 13.4336 38.8697 14.8837 39.338 16.2209C39.4493 16.5773 39.6373 16.9049 39.8886 17.181C40.1399 17.457 40.4486 17.6748 40.7929 17.819C42.3605 18.5043 44.2091 17.7485 44.767 16.1346C45.005 15.4429 45.0576 14.6881 45.1881 14.0059Z" fill="#121314"/>
<path d="M69.9115 45.5481C67.4407 47.7431 64.7077 48.0947 62.259 46.5619C61.6284 46.1666 61.0748 45.6601 60.6252 45.067C58.5923 42.3467 58.5786 37.5746 60.3757 34.6943C62.198 31.774 66.7058 31.0391 69.1924 33.2794C69.3093 33.3847 69.4398 33.4762 69.7641 33.7321C69.7641 32.7846 69.7641 32.0224 69.7641 31.2623C69.7641 30.018 69.7788 28.7726 69.7641 27.5282C69.7567 26.9492 69.9957 26.705 70.5789 26.7187C71.5748 26.7418 72.5717 26.745 73.5666 26.7187C74.1698 26.7029 74.3877 26.9808 74.3551 27.544C74.3414 27.7925 74.3551 28.042 74.3551 28.2915V45.5944C74.3551 45.805 74.3625 46.0155 74.3551 46.2166C74.3151 47.0935 74.2761 47.1536 73.4403 47.1809C72.6044 47.2083 71.7801 47.2041 70.9505 47.1809C70.0315 47.1588 70.0315 47.143 69.9588 46.1756C69.943 46.0155 69.9325 45.8513 69.9115 45.5481ZM69.9241 39.7685L69.8262 39.7412C69.7904 39.2053 69.802 38.6621 69.7093 38.1368C69.4577 36.7124 68.566 35.8702 67.2512 35.7512C65.5668 35.5975 64.6024 36.1439 64.0813 37.6736C63.6171 39.0337 63.6434 40.4444 64.015 41.8161C64.3308 42.9857 65.2067 43.6058 66.3458 43.7111C67.7007 43.8311 68.8598 43.5005 69.3988 42.1593C69.7041 41.4077 69.7588 40.5634 69.9241 39.7685Z" fill="#121314"/>
<path d="M131.72 16.7418C131.396 18.563 130.394 19.6894 129.123 20.4895C126.597 22.0781 123.86 22.2255 121.14 21.0854C117.813 19.6926 116.467 16.1996 116.904 12.8571C117.354 9.41252 119.364 7.107 122.606 6.46587C125.877 5.81843 129.014 6.65432 130.829 9.46621C131.856 11.0569 132.152 12.835 132.123 14.6931C132.112 15.3721 131.669 15.37 131.191 15.37C128.744 15.37 126.296 15.37 123.847 15.37C123.225 15.37 122.602 15.3816 121.979 15.37C121.471 15.3605 121.339 15.5427 121.478 16.0522C122.093 18.323 125.287 19.1999 126.915 17.4597C127.441 16.9028 127.918 16.7039 128.624 16.7312C129.611 16.7702 130.599 16.7418 131.72 16.7418ZM121.462 12.4781C123.319 12.4781 125.159 12.4844 126.999 12.4781C127.586 12.4781 127.525 12.0928 127.394 11.7022C127.005 10.5063 125.604 9.59675 124.294 9.70202C122.562 9.83256 121.726 10.6169 121.462 12.4781V12.4781Z" fill="#121314"/>
<path d="M65.1837 16.7416C64.9658 18.1407 64.2773 19.0576 63.4172 19.8556C60.5116 22.5517 55.192 22.4085 52.4117 19.5756C49.3103 16.4173 49.6746 10.463 53.1055 7.79112C56.1585 5.41717 61.9896 5.71825 64.2699 9.42603C65.2542 11.0273 65.6458 12.7759 65.6006 14.6445C65.5879 15.1804 65.369 15.3814 64.851 15.372C63.9804 15.3551 63.1087 15.372 62.2381 15.372C60.081 15.372 57.9218 15.3635 55.7668 15.372C54.8299 15.3783 54.7015 15.613 55.0962 16.49C55.9985 18.5028 58.923 19.0292 60.4284 17.389C60.8758 16.9027 61.2906 16.7111 61.9149 16.7321C62.955 16.7668 63.9814 16.7416 65.1837 16.7416ZM57.9492 12.4811C58.7746 12.4811 59.5999 12.4811 60.4263 12.4811C60.9443 12.4811 61.058 12.2706 60.8969 11.78C60.4968 10.5398 59.2651 9.66606 57.8534 9.67448C56.4732 9.68185 55.3331 10.5356 54.971 11.78C54.8257 12.2779 54.971 12.4801 55.4721 12.4769C56.2985 12.478 57.1238 12.4811 57.9492 12.4811Z" fill="#121314"/>
<path d="M101.871 19.4935C100.676 20.8242 99.5046 21.4801 98.0318 21.7043C94.9399 22.1749 92.3059 20.2441 92.1869 17.1217C92.0627 13.8908 92.1575 10.6526 92.1311 7.41745C92.1248 6.75212 92.4206 6.5521 93.0312 6.57526C93.9008 6.60052 94.7725 6.57526 95.6442 6.58368C96.6811 6.59947 96.6969 6.60789 96.7074 7.61748C96.7211 9.81667 96.7074 12.0148 96.7074 14.2129C96.7074 14.6277 96.6937 15.0436 96.7159 15.4573C96.798 16.9543 97.478 17.7186 98.7656 17.7828C100.324 17.8607 101.413 17.0459 101.615 15.6184C101.668 15.1233 101.685 14.6252 101.669 14.1277C101.674 11.9706 101.657 9.81141 101.68 7.65748C101.69 6.67 101.777 6.60473 102.762 6.58473C103.716 6.56789 104.669 6.59105 105.623 6.58473C106.15 6.57947 106.381 6.82792 106.37 7.3406C106.364 7.59011 106.37 7.83855 106.37 8.087C106.37 12.0285 106.37 15.9693 106.37 19.9094C106.37 20.1992 106.364 20.4894 106.353 20.78C106.336 21.179 106.118 21.3864 105.721 21.3874C104.643 21.3874 103.564 21.3874 102.486 21.3874C102.093 21.3874 101.854 21.2127 101.862 20.7937C101.872 20.4547 101.871 20.1252 101.871 19.4935Z" fill="#121314"/>
<path d="M26.0766 39.6634C26.0682 34.6523 29.6897 31.7457 34.1754 31.9709C38.9286 32.2089 41.6868 35.2345 41.6173 39.8402C41.5404 44.9987 37.9758 47.6169 33.4343 47.48C29.0127 47.3411 25.9766 44.1355 26.0766 39.6634ZM37.0084 39.8023C36.8683 39.0454 36.8031 38.2548 36.5683 37.5189C36.1862 36.3198 35.3376 35.7861 34.027 35.7356C32.7637 35.6871 31.7172 36.0367 31.1846 37.2778C30.8484 38.036 30.6718 38.8552 30.6659 39.6845C30.6599 40.5138 30.8246 41.3355 31.1498 42.0984C31.652 43.3217 32.5426 43.7733 34.0638 43.707C35.3534 43.6522 36.2125 43.0753 36.5904 41.8952C36.8031 41.232 36.8683 40.5277 37.0084 39.7981V39.8023Z" fill="#121314"/>
<path d="M28.1567 19.5758C27.0323 20.8854 25.8048 21.4887 24.3668 21.7234C21.7044 22.1572 19.2651 20.5338 18.6998 17.8893C18.5702 17.3239 18.4972 16.7469 18.4819 16.167C18.4587 13.3456 18.463 10.5232 18.4724 7.70081C18.4724 6.60174 18.4966 6.59227 19.5904 6.57647C20.42 6.56384 21.2506 6.55858 22.0802 6.57647C22.9992 6.59858 23.0466 6.63753 23.0529 7.59132C23.0687 9.83263 23.0529 12.0739 23.0645 14.3142C23.0676 14.8105 23.1098 15.3057 23.1908 15.7954C23.5067 17.7314 25.4416 18.4746 27.0228 17.2829C27.9051 16.6186 28.1335 15.6691 28.1388 14.6395C28.1493 12.5645 28.1388 10.4895 28.1451 8.41457C28.1514 6.33961 27.9093 6.57121 30.0274 6.58068C30.8812 6.58068 31.735 6.69859 32.5887 6.76281C32.6319 7.58395 32.7087 8.40405 32.7119 9.22519C32.7256 12.6698 32.7182 16.1144 32.7182 19.559C32.7182 19.8495 32.7266 20.1401 32.7182 20.4296C32.6814 21.3002 32.6435 21.356 31.8023 21.3771C30.9317 21.4013 30.06 21.3981 29.1884 21.3771C28.3167 21.356 28.2872 21.3265 28.204 20.4833C28.1788 20.2927 28.1788 20.0822 28.1567 19.5758Z" fill="#121314"/>
<path d="M88.7944 12.3059C88.4206 12.3059 88.0458 12.2859 87.6742 12.3059C87.0184 12.348 86.6025 12.1501 86.3688 11.4553C86.0393 10.4773 85.2255 10.1288 84.2202 10.0815C83.1158 10.032 82.0852 10.1983 81.5662 11.2816C80.7166 13.0534 80.7019 14.8988 81.5388 16.6748C82.0104 17.6749 82.9853 18.0434 84.0412 17.9644C85.0971 17.8855 86.1372 17.6244 86.452 16.3853C86.6246 15.7021 86.9889 15.4505 87.6911 15.4989C88.5164 15.5557 89.3491 15.4989 90.1787 15.5147C91.2736 15.5305 91.3736 15.6768 91.082 16.778C90.5251 18.8919 89.226 20.3858 87.1963 21.1585C84.7128 22.1059 82.2242 22.0344 79.8713 20.7447C78.2005 19.8299 77.1246 18.3918 76.6551 16.518C76.1056 14.3198 76.1414 12.1617 77.1741 10.1109C78.3532 7.77067 80.3324 6.54527 82.9137 6.32103C84.6655 6.17049 86.3962 6.27471 87.9669 7.21482C89.6155 8.20124 90.704 9.57508 91.042 11.51C91.1378 12.0648 90.9367 12.288 90.4103 12.288H88.7944V12.3059Z" fill="#121314"/>
<path d="M109.298 14.3888C109.298 13.2307 109.311 12.0727 109.298 10.9084C109.283 10.0009 109.26 9.99248 108.41 9.93773C108.286 9.92931 108.161 9.93773 108.036 9.93773C107.113 9.88826 107.109 9.8872 107.084 8.91446C107.072 8.45862 107.07 8.00278 107.084 7.54589C107.112 6.62263 107.117 6.62158 108.095 6.57947C108.302 6.56964 108.509 6.56718 108.717 6.5721C109.138 6.58052 109.303 6.36155 109.299 5.95729C109.291 5.08772 109.289 4.2171 109.305 3.34753C109.324 2.31794 109.337 2.3032 110.349 2.28531C111.261 2.26846 112.173 2.29899 113.086 2.27899C113.676 2.26636 113.898 2.53586 113.889 3.10329C113.873 4.01497 113.903 4.92665 113.889 5.84044C113.878 6.36049 114.069 6.62263 114.61 6.57736C114.734 6.56683 114.858 6.57736 114.982 6.57736C116.783 6.57736 116.667 6.42682 116.667 8.24597C116.667 8.53547 116.651 8.82603 116.667 9.11554C116.697 9.68297 116.463 9.94089 115.873 9.94405C115.263 9.94405 114.652 10.0304 114.041 10.0788C113.99 10.7684 113.904 11.4579 113.894 12.1485C113.871 13.5992 113.873 15.0499 113.894 16.4995C113.909 17.627 114.162 17.887 115.251 17.9913C115.457 18.0149 115.665 18.0212 115.872 18.0102C116.459 17.9681 116.694 18.2376 116.67 18.8156C116.646 19.3935 116.682 19.9736 116.664 20.5558C116.637 21.4159 116.572 21.5506 115.759 21.5348C114.523 21.5106 113.269 21.479 112.061 21.2474C110.368 20.9242 109.438 19.7472 109.347 17.9965C109.286 16.7985 109.336 15.5942 109.336 14.393L109.298 14.3888Z" fill="#121314"/>
<path d="M57.9003 36.963C57.9003 39.9465 57.9003 42.9293 57.9003 45.9113C57.9003 47.1683 57.8888 47.1746 56.6813 47.1873C55.8117 47.1957 54.9411 47.1799 54.0715 47.1873C53.5567 47.1873 53.304 46.9578 53.3219 46.4356C53.3304 46.1882 53.3219 45.9387 53.3219 45.6903V28.1631C53.3219 27.9525 53.3356 27.7483 53.3219 27.5419C53.2861 26.9756 53.5167 26.6997 54.1115 26.7187C55.1053 26.7418 56.0998 26.7418 57.095 26.7187C57.6708 26.705 57.9161 26.9292 57.9077 27.5156C57.8867 28.841 57.9077 30.1675 57.9077 31.4929C57.9028 33.3163 57.9003 35.1396 57.9003 36.963Z" fill="#121314"/>
<path d="M71.3174 9.02818C72.2322 7.21219 73.6145 6.51632 75.3178 6.36157C76.3211 6.27103 76.5053 6.43105 76.5264 7.39748C76.5422 8.14387 76.5443 8.89133 76.5264 9.63667C76.5022 10.5599 76.4758 10.5747 75.5115 10.622C75.2641 10.6336 75.0136 10.622 74.7662 10.642C72.7923 10.7757 71.6237 11.9053 71.5479 13.8877C71.4732 15.8342 71.509 17.7828 71.4953 19.7325C71.4953 20.0641 71.4879 20.3968 71.4806 20.7274C71.47 21.1906 71.2184 21.3906 70.7678 21.3885C69.6898 21.3885 68.6118 21.3822 67.5338 21.3885C67.0074 21.3885 66.7969 21.1179 66.7969 20.6179C66.7969 20.2452 66.7969 19.8715 66.7969 19.4988V8.1744C66.7969 7.88385 66.7969 7.59434 66.7969 7.30378C66.7969 6.869 66.9643 6.58265 67.4454 6.58265C68.5234 6.58265 69.6014 6.58265 70.6794 6.58265C71.1689 6.58265 71.3268 6.8511 71.3195 7.29431C71.3111 7.78173 71.3174 8.27126 71.3174 9.02818Z" fill="#121314"/>
<path d="M47.1874 34.4059C48.1286 32.8036 49.5329 32.1698 51.2584 32.0719C52.1353 32.0214 52.3617 32.213 52.3827 33.0952C52.3996 33.8412 52.3996 34.5876 52.3827 35.3344C52.3606 36.2334 52.349 36.2324 51.4868 36.2871C51.0742 36.3134 50.6541 36.304 50.2499 36.3819C48.3549 36.7472 47.4359 37.801 47.3969 39.7264C47.3569 41.7172 47.3832 43.7079 47.379 45.6987C47.379 45.9882 47.3727 46.2788 47.3674 46.5693C47.3601 46.9767 47.1421 47.1746 46.7442 47.1767C45.6662 47.1767 44.5882 47.1767 43.5102 47.1767C42.9838 47.1767 42.7732 46.8936 42.7922 46.3903C42.7996 46.2251 42.7922 46.0587 42.7922 45.8934C42.7922 41.7877 42.7922 37.682 42.7922 33.5763C42.7922 32.2677 42.8027 32.2646 44.1008 32.253C44.764 32.2467 45.4272 32.2404 46.0904 32.253C47.1485 32.2761 47.1664 32.2993 47.1874 33.411C47.1937 33.7426 47.1874 34.0742 47.1874 34.4059Z" fill="#121314"/>
</svg>
