<svg width="192" height="192" viewBox="0 0 192 192" fill="none" xmlns="http://www.w3.org/2000/svg">
<circle cx="96" cy="96" r="95.5" fill="#121314" stroke="#EFECDC"/>
<path d="M38.8765 94.3286C36.6815 94.375 34.5665 94.0497 32.7158 92.7779C31.084 91.6557 30.1839 90.0671 30.0208 88.0911C29.945 87.1836 30.0376 87.1026 30.9682 87.0815C31.922 87.0605 32.8769 87.0815 33.8317 87.0815C34.3897 87.0815 34.7697 87.2131 34.8329 87.89C34.9634 89.2849 35.8593 89.9955 37.1584 90.2787C38.3048 90.5314 39.4481 90.6167 40.6051 90.3145C41.8242 89.9987 42.4232 89.367 42.4432 88.2974C42.4621 87.3573 41.9758 86.6973 40.823 86.3888C39.3492 85.993 37.8269 85.7572 36.3499 85.3592C35.3482 85.1054 34.3742 84.7528 33.4422 84.3065C31.2904 83.2274 30.3271 81.3419 30.3513 79.0227C30.3776 76.5351 31.6978 74.7528 33.9749 73.8558C36.9384 72.6852 39.9882 72.7378 42.958 73.8769C45.1403 74.7191 46.4142 76.3898 46.7658 78.7132C46.9121 79.6818 46.7784 79.8112 45.8299 79.8428C45.2498 79.8618 44.6645 79.8091 44.0876 79.8555C42.9801 79.9428 42.0589 79.8849 41.8484 78.4532C41.7431 77.7405 41.022 77.4447 40.3861 77.2299C39.1681 76.8162 37.9448 76.8741 36.7205 77.2541C35.9562 77.491 35.5287 77.9837 35.474 78.7711C35.4245 79.5291 35.6656 80.2092 36.3783 80.5366C37.0939 80.8561 37.8375 81.1087 38.5996 81.2914C40.0829 81.6641 41.6031 81.9052 43.0675 82.3378C43.9391 82.6073 44.7642 83.0089 45.5141 83.5285C48.446 85.5287 48.2302 90.8619 45.0603 92.8411C43.5781 93.7665 41.9568 94.1834 40.2451 94.3244C39.7903 94.3602 39.3323 94.3286 38.8765 94.3286Z" fill="white"/>
<path d="M68.9664 80.8064C70.8108 78.7177 72.9595 78.4071 75.3187 79.0841C77.0557 79.5831 78.2664 80.7221 78.9549 82.3929C80.0876 85.1658 80.1129 87.9566 78.9191 90.7148C77.1641 94.7826 71.6498 95.2911 69.3591 92.6572C69.3127 92.6035 69.2169 92.5929 68.9938 92.4992C68.9938 93.6909 68.9938 94.8258 68.9938 95.9607C68.9938 96.8734 68.979 97.7861 68.9938 98.6978C69.0043 99.261 68.7832 99.5453 68.1947 99.54C67.1995 99.5239 66.2043 99.5239 65.2091 99.54C64.6249 99.5495 64.3764 99.2821 64.4027 98.7115C64.4164 98.422 64.4027 98.1314 64.4027 97.8409C64.4027 92.156 64.4027 86.474 64.4027 80.7948C64.4027 80.5842 64.3975 80.38 64.4027 80.1726C64.4312 79.1493 64.4669 79.1009 65.4407 79.0799C66.2703 79.063 67.0999 79.063 67.9294 79.0799C68.858 79.0988 68.859 79.1114 68.9274 80.0652C68.9411 80.2273 68.9453 80.3916 68.9664 80.8064ZM75.1881 86.5059C75.0702 85.7827 75.0208 85.1184 74.847 84.4889C74.3923 82.8434 73.2111 82.4887 72.0815 82.4476C70.6624 82.4002 69.6117 83.2256 69.2264 84.5731C68.8307 85.9336 68.8697 87.3837 69.338 88.7209C69.4493 89.0773 69.6373 89.4049 69.8886 89.681C70.1399 89.957 70.4486 90.1748 70.7929 90.319C72.3605 91.0043 74.2091 90.2485 74.767 88.6346C75.005 87.9429 75.0576 87.1881 75.1881 86.5059Z" fill="white"/>
<path d="M161.72 89.2418C161.396 91.063 160.394 92.1894 159.123 92.9895C156.597 94.5781 153.86 94.7255 151.14 93.5854C147.813 92.1926 146.467 88.6996 146.904 85.3571C147.354 81.9125 149.364 79.607 152.606 78.9659C155.877 78.3184 159.014 79.1543 160.829 81.9662C161.856 83.5569 162.152 85.335 162.123 87.1931C162.112 87.8721 161.669 87.87 161.191 87.87C158.744 87.87 156.296 87.87 153.847 87.87C153.225 87.87 152.602 87.8816 151.979 87.87C151.471 87.8605 151.339 88.0427 151.478 88.5522C152.093 90.823 155.287 91.6999 156.915 89.9597C157.441 89.4028 157.918 89.2039 158.624 89.2312C159.611 89.2702 160.599 89.2418 161.72 89.2418ZM151.462 84.9781C153.319 84.9781 155.159 84.9844 156.999 84.9781C157.586 84.9781 157.525 84.5928 157.394 84.2022C157.005 83.0063 155.604 82.0967 154.294 82.202C152.562 82.3326 151.726 83.1169 151.462 84.9781Z" fill="white"/>
<path d="M95.1837 89.2416C94.9658 90.6407 94.2773 91.5576 93.4172 92.3556C90.5116 95.0517 85.192 94.9085 82.4117 92.0756C79.3103 88.9173 79.6746 82.963 83.1055 80.2911C86.1585 77.9172 91.9896 78.2183 94.2699 81.926C95.2542 83.5273 95.6458 85.2759 95.6006 87.1445C95.5879 87.6804 95.369 87.8814 94.851 87.872C93.9804 87.8551 93.1087 87.872 92.2381 87.872C90.081 87.872 87.9218 87.8635 85.7668 87.872C84.8299 87.8783 84.7015 88.113 85.0962 88.99C85.9985 91.0028 88.923 91.5292 90.4284 89.889C90.8758 89.4027 91.2906 89.2111 91.9149 89.2321C92.955 89.2668 93.9814 89.2416 95.1837 89.2416ZM87.9492 84.9811C88.7746 84.9811 89.5999 84.9811 90.4263 84.9811C90.9443 84.9811 91.058 84.7706 90.8969 84.28C90.4969 83.0398 89.2651 82.1661 87.8534 82.1745C86.4732 82.1819 85.3331 83.0356 84.971 84.28C84.8257 84.7779 84.971 84.9801 85.4721 84.9769C86.2985 84.978 87.1238 84.9811 87.9492 84.9811Z" fill="white"/>
<path d="M131.871 91.9933C130.676 93.324 129.505 93.9798 128.032 94.2041C124.94 94.6746 122.306 92.7439 122.187 89.6214C122.063 86.3906 122.157 83.1523 122.131 79.9172C122.125 79.2519 122.421 79.0519 123.031 79.075C123.901 79.1003 124.772 79.075 125.644 79.0834C126.681 79.0992 126.697 79.1076 126.707 80.1172C126.721 82.3164 126.707 84.5146 126.707 86.7127C126.707 87.1275 126.694 87.5433 126.716 87.9571C126.798 89.4541 127.478 90.2184 128.766 90.2826C130.324 90.3605 131.413 89.5456 131.615 88.1181C131.668 87.6231 131.685 87.125 131.669 86.6274C131.674 84.4703 131.657 82.3112 131.68 80.1572C131.69 79.1698 131.777 79.1045 132.762 79.0845C133.716 79.0676 134.669 79.0908 135.623 79.0845C136.15 79.0792 136.381 79.3277 136.37 79.8404C136.364 80.0899 136.37 80.3383 136.37 80.5868C136.37 84.5282 136.37 88.469 136.37 92.4091C136.37 92.699 136.364 92.9892 136.353 93.2797C136.336 93.6787 136.118 93.8861 135.721 93.8872C134.643 93.8872 133.564 93.8872 132.486 93.8872C132.093 93.8872 131.854 93.7124 131.862 93.2934C131.872 92.9544 131.871 92.6249 131.871 91.9933Z" fill="white"/>
<path d="M58.1567 92.0753C57.0323 93.3849 55.8048 93.9882 54.3668 94.2229C51.7044 94.6567 49.2651 93.0333 48.6998 90.3888C48.5702 89.8234 48.4972 89.2464 48.4819 88.6665C48.4587 85.8452 48.463 83.0227 48.4724 80.2003C48.4724 79.1013 48.4966 79.0918 49.5904 79.076C50.42 79.0634 51.2506 79.0581 52.0802 79.076C52.9992 79.0981 53.0466 79.137 53.0529 80.0908C53.0687 82.3321 53.0529 84.5734 53.0645 86.8137C53.0676 87.31 53.1098 87.8053 53.1908 88.2949C53.5067 90.2309 55.4416 90.9741 57.0229 89.7824C57.9051 89.1182 58.1335 88.1686 58.1388 87.139C58.1493 85.064 58.1388 82.9891 58.1451 80.9141C58.1514 78.8391 57.9093 79.0707 60.0274 79.0802C60.8812 79.0802 61.735 79.1981 62.5887 79.2623C62.6319 80.0835 62.7087 80.9036 62.7119 81.7247C62.7256 85.1693 62.7182 88.6139 62.7182 92.0585C62.7182 92.349 62.7266 92.6396 62.7182 92.9291C62.6814 93.7997 62.6435 93.8555 61.8023 93.8766C60.9317 93.9008 60.06 93.8976 59.1884 93.8766C58.3167 93.8555 58.2872 93.826 58.204 92.9828C58.1788 92.7922 58.1788 92.5817 58.1567 92.0753Z" fill="white"/>
<path d="M118.794 84.8059C118.421 84.8059 118.046 84.7859 117.674 84.8059C117.018 84.848 116.603 84.6501 116.369 83.9553C116.039 82.9773 115.226 82.6288 114.22 82.5815C113.116 82.532 112.085 82.6983 111.566 83.7816C110.717 85.5534 110.702 87.3988 111.539 89.1748C112.01 90.1749 112.985 90.5434 114.041 90.4644C115.097 90.3855 116.137 90.1244 116.452 88.8853C116.625 88.2021 116.989 87.9505 117.691 87.9989C118.516 88.0557 119.349 87.9989 120.179 88.0147C121.274 88.0305 121.374 88.1768 121.082 89.278C120.525 91.3919 119.226 92.8858 117.196 93.6585C114.713 94.6059 112.224 94.5344 109.871 93.2447C108.201 92.3299 107.125 90.8918 106.655 89.018C106.106 86.8198 106.141 84.6617 107.174 82.6109C108.353 80.2707 110.332 79.0453 112.914 78.821C114.665 78.6705 116.396 78.7747 117.967 79.7148C119.616 80.7012 120.704 82.0751 121.042 84.01C121.138 84.5648 120.937 84.788 120.41 84.788H118.794V84.8059Z" fill="white"/>
<path d="M139.298 86.8888C139.298 85.7307 139.311 84.5727 139.298 83.4084C139.283 82.5009 139.26 82.4925 138.41 82.4377C138.286 82.4293 138.161 82.4377 138.036 82.4377C137.113 82.3883 137.109 82.3872 137.084 81.4145C137.072 80.9586 137.07 80.5028 137.084 80.0459C137.112 79.1226 137.117 79.1216 138.095 79.0795C138.302 79.0696 138.509 79.0672 138.717 79.0721C139.138 79.0805 139.303 78.8615 139.299 78.4573C139.291 77.5877 139.289 76.7171 139.305 75.8475C139.324 74.8179 139.337 74.8032 140.349 74.7853C141.261 74.7685 142.173 74.799 143.086 74.779C143.676 74.7664 143.898 75.0359 143.889 75.6033C143.873 76.515 143.903 77.4267 143.889 78.3404C143.878 78.8605 144.069 79.1226 144.61 79.0774C144.734 79.0668 144.858 79.0774 144.982 79.0774C146.783 79.0774 146.667 78.9268 146.667 80.746C146.667 81.0355 146.651 81.326 146.667 81.6155C146.697 82.183 146.463 82.4409 145.873 82.4441C145.263 82.4441 144.652 82.5304 144.041 82.5788C143.99 83.2684 143.904 83.9579 143.894 84.6485C143.871 86.0992 143.873 87.5499 143.894 88.9995C143.909 90.127 144.162 90.387 145.251 90.4913C145.457 90.5149 145.665 90.5212 145.872 90.5102C146.459 90.4681 146.694 90.7376 146.67 91.3156C146.646 91.8935 146.682 92.4736 146.664 93.0558C146.637 93.9159 146.572 94.0506 145.759 94.0348C144.523 94.0106 143.269 93.979 142.061 93.7474C140.368 93.4242 139.438 92.2472 139.347 90.4965C139.286 89.2985 139.336 88.0942 139.336 86.893L139.298 86.8888Z" fill="white"/>
<path d="M101.317 81.5282C102.232 79.7122 103.614 79.0163 105.318 78.8616C106.321 78.771 106.505 78.9311 106.526 79.8975C106.542 80.6439 106.544 81.3913 106.526 82.1367C106.502 83.0599 106.476 83.0747 105.512 83.122C105.264 83.1336 105.014 83.122 104.766 83.142C102.792 83.2757 101.624 84.4053 101.548 86.3877C101.473 88.3342 101.509 90.2828 101.495 92.2325C101.495 92.5641 101.488 92.8968 101.481 93.2274C101.47 93.6906 101.218 93.8906 100.768 93.8885C99.6898 93.8885 98.6118 93.8822 97.5338 93.8885C97.0074 93.8885 96.7969 93.6179 96.7969 93.1179C96.7969 92.7452 96.7969 92.3715 96.7969 91.9988V80.6744C96.7969 80.3838 96.7969 80.0943 96.7969 79.8038C96.7969 79.369 96.9643 79.0826 97.4454 79.0826C98.5234 79.0826 99.6014 79.0826 100.679 79.0826C101.169 79.0826 101.327 79.3511 101.319 79.7943C101.311 80.2817 101.317 80.7713 101.317 81.5282Z" fill="white"/>
<path d="M136.997 101.073C136.788 101.994 136.578 102.917 136.367 103.841H135.553L134.919 101.051L134.871 101.065V103.824H134.252V100.446H135.33L135.957 103.324C136.182 102.296 136.384 101.37 136.59 100.431H137.662V103.834H137.03V101.09L136.997 101.073Z" fill="white"/>
<path d="M132.489 103.841H131.785V101.134L130.842 101.077V100.431H133.4V101.07L132.489 101.13L132.489 103.841Z" fill="white"/>
<path d="M67.8175 109.307C67.0384 112.86 66.2531 116.413 65.4888 119.97C65.373 120.51 65.1098 120.743 64.5582 120.737C63.1075 120.721 61.6547 120.706 60.204 120.745C59.545 120.763 59.2649 120.535 59.1291 119.876C58.6438 117.525 58.0816 115.191 57.5669 112.847C56.7408 109.09 55.9235 105.33 55.115 101.568C54.8897 100.53 54.916 100.495 55.9319 100.474C56.7194 100.459 57.5111 100.465 58.2954 100.474C59.3586 100.485 59.3628 100.489 59.5881 101.507C60.4051 105.184 61.2206 108.861 62.0347 112.539C62.1052 112.855 62.2126 113.164 62.3505 113.649C63.2454 109.584 64.0981 105.707 64.9519 101.828C65.0056 101.586 65.0877 101.349 65.1245 101.104C65.1909 100.659 65.4404 100.472 65.8825 100.472C67.21 100.482 68.5365 100.489 69.863 100.472C70.4651 100.464 70.6209 100.826 70.7262 101.315C71.4701 104.754 72.2215 108.19 72.9801 111.625C73.1665 112.474 73.3602 113.319 73.5928 114.354C73.736 114.021 73.8487 113.843 73.8918 113.649C74.8003 109.57 75.7236 105.494 76.5837 101.404C76.7353 100.687 77.0048 100.418 77.7217 100.457C78.5902 100.507 79.463 100.457 80.3336 100.474C81.2042 100.492 81.2811 100.597 81.1 101.427C80.621 103.652 80.123 105.872 79.6335 108.094C78.8166 111.81 78 115.525 77.1838 119.24C77.1574 119.362 77.1395 119.485 77.1111 119.606C76.849 120.715 76.8479 120.722 75.7225 120.729C74.3129 120.738 72.9033 120.74 71.4926 120.729C70.4935 120.721 70.4683 120.715 70.2493 119.751C69.7103 117.371 69.1966 114.984 68.6702 112.601C68.4309 111.512 68.1912 110.425 67.9512 109.338L67.8175 109.307Z" fill="white"/>
<path d="M124.87 119.048C122.4 121.243 119.667 121.594 117.218 120.062C116.587 119.666 116.034 119.16 115.584 118.567C113.551 115.846 113.538 111.074 115.335 108.194C117.157 105.274 121.665 104.539 124.151 106.779C124.268 106.884 124.399 106.976 124.723 107.232C124.723 106.284 124.723 105.522 124.723 104.762C124.723 103.518 124.738 102.272 124.723 101.028C124.716 100.449 124.955 100.205 125.538 100.218C126.534 100.242 127.531 100.245 128.526 100.218C129.129 100.203 129.347 100.481 129.314 101.044C129.3 101.292 129.314 101.542 129.314 101.791V119.094C129.314 119.305 129.321 119.515 129.314 119.716C129.274 120.593 129.235 120.653 128.399 120.681C127.563 120.708 126.739 120.704 125.91 120.681C124.99 120.659 124.99 120.643 124.918 119.675C124.902 119.515 124.891 119.351 124.87 119.048ZM124.883 113.268L124.785 113.241C124.749 112.705 124.761 112.162 124.668 111.637C124.417 110.212 123.525 109.37 122.21 109.251C120.526 109.097 119.561 109.644 119.04 111.173C118.576 112.533 118.602 113.944 118.974 115.316C119.29 116.485 120.166 117.106 121.305 117.211C122.66 117.331 123.819 117 124.358 115.659C124.663 114.907 124.718 114.063 124.883 113.268Z" fill="white"/>
<path d="M81.0356 113.164C81.0272 108.153 84.6486 105.246 89.1344 105.471C93.8876 105.709 96.6458 108.735 96.5763 113.34C96.4994 118.499 92.9348 121.117 88.3933 120.98C83.9717 120.841 80.9356 117.636 81.0356 113.164ZM91.9673 113.303C91.8273 112.546 91.7621 111.755 91.5273 111.019C91.1451 109.82 90.2966 109.286 88.986 109.236C87.7227 109.187 86.6762 109.537 86.1435 110.778C85.8074 111.536 85.6308 112.355 85.6248 113.185C85.6189 114.014 85.7836 114.836 86.1088 115.599C86.611 116.822 87.5016 117.274 89.0228 117.207C90.3124 117.152 91.1715 116.576 91.5494 115.395C91.7621 114.732 91.8273 114.028 91.9673 113.298V113.303Z" fill="white"/>
<path d="M112.859 110.463C112.859 113.446 112.859 116.429 112.859 119.411C112.859 120.668 112.848 120.675 111.64 120.687C110.771 120.696 109.9 120.68 109.03 120.687C108.516 120.687 108.263 120.458 108.281 119.936C108.289 119.688 108.281 119.439 108.281 119.19V101.663C108.281 101.453 108.295 101.248 108.281 101.042C108.245 100.476 108.476 100.2 109.07 100.219C110.064 100.242 111.059 100.242 112.054 100.219C112.63 100.205 112.875 100.429 112.867 101.016C112.846 102.341 112.867 103.667 112.867 104.993C112.862 106.816 112.859 108.64 112.859 110.463Z" fill="white"/>
<path d="M102.146 107.906C103.088 106.304 104.492 105.67 106.217 105.572C107.094 105.521 107.321 105.713 107.342 106.595C107.359 107.341 107.359 108.088 107.342 108.834C107.32 109.733 107.308 109.732 106.446 109.787C106.033 109.813 105.613 109.804 105.209 109.882C103.314 110.247 102.395 111.301 102.356 113.226C102.316 115.217 102.342 117.208 102.338 119.199C102.338 119.488 102.332 119.779 102.326 120.069C102.319 120.477 102.101 120.675 101.703 120.677C100.625 120.677 99.5472 120.677 98.4691 120.677C97.9428 120.677 97.7322 120.394 97.7512 119.89C97.7585 119.725 97.7512 119.559 97.7512 119.393C97.7512 115.288 97.7512 111.182 97.7512 107.076C97.7512 105.768 97.7617 105.765 99.0597 105.753C99.723 105.747 100.386 105.74 101.049 105.753C102.107 105.776 102.125 105.799 102.146 106.911C102.153 107.243 102.146 107.574 102.146 107.906Z" fill="white"/>
</svg>
