<svg width="162" height="19" viewBox="0 0 162 19" fill="none" xmlns="http://www.w3.org/2000/svg">
<path d="M5.59997 14.27C4.65197 14.27 3.79697 14.105 3.03497 13.775C2.27897 13.445 1.65497 12.974 1.16297 12.362C0.676969 11.744 0.367969 11.012 0.235969 10.166L2.48597 9.824C2.67797 10.592 3.07097 11.186 3.66497 11.606C4.26497 12.026 4.95497 12.236 5.73497 12.236C6.19697 12.236 6.63197 12.164 7.03997 12.02C7.44797 11.876 7.77797 11.666 8.02997 11.39C8.28797 11.114 8.41697 10.775 8.41697 10.373C8.41697 10.193 8.38697 10.028 8.32697 9.878C8.26697 9.722 8.17697 9.584 8.05697 9.464C7.94297 9.344 7.79297 9.236 7.60697 9.14C7.42697 9.038 7.21697 8.951 6.97697 8.879L3.62897 7.889C3.34097 7.805 3.02897 7.694 2.69297 7.556C2.36297 7.412 2.04797 7.217 1.74797 6.971C1.45397 6.719 1.21097 6.401 1.01897 6.017C0.832969 5.627 0.739969 5.147 0.739969 4.577C0.739969 3.743 0.949969 3.044 1.36997 2.48C1.79597 1.91 2.36597 1.484 3.07997 1.202C3.79997 0.919999 4.59797 0.781999 5.47397 0.788C6.36197 0.793999 7.15397 0.946999 7.84997 1.247C8.54597 1.541 9.12797 1.97 9.59597 2.534C10.064 3.098 10.394 3.779 10.586 4.577L8.25497 4.982C8.15897 4.526 7.97297 4.139 7.69697 3.821C7.42697 3.497 7.09397 3.251 6.69797 3.083C6.30797 2.915 5.89097 2.825 5.44697 2.813C5.01497 2.807 4.61297 2.873 4.24097 3.011C3.87497 3.143 3.57797 3.335 3.34997 3.587C3.12797 3.839 3.01697 4.133 3.01697 4.469C3.01697 4.787 3.11297 5.048 3.30497 5.252C3.49697 5.45 3.73397 5.609 4.01597 5.729C4.30397 5.843 4.59497 5.939 4.88897 6.017L7.21097 6.665C7.52897 6.749 7.88597 6.863 8.28197 7.007C8.67797 7.151 9.05897 7.352 9.42497 7.61C9.79097 7.868 10.091 8.207 10.325 8.627C10.565 9.047 10.685 9.581 10.685 10.229C10.685 10.901 10.544 11.492 10.262 12.002C9.98597 12.506 9.61097 12.926 9.13697 13.262C8.66297 13.598 8.11997 13.85 7.50797 14.018C6.90197 14.186 6.26597 14.27 5.59997 14.27ZM16.278 14.279C15.558 14.279 14.964 14.159 14.496 13.919C14.028 13.679 13.656 13.373 13.38 13.001C13.104 12.629 12.9 12.233 12.768 11.813C12.636 11.393 12.549 10.997 12.507 10.625C12.471 10.247 12.453 9.941 12.453 9.707V4.28H14.649V8.96C14.649 9.26 14.67 9.599 14.712 9.977C14.754 10.349 14.85 10.709 15 11.057C15.156 11.399 15.384 11.681 15.684 11.903C15.99 12.125 16.401 12.236 16.917 12.236C17.193 12.236 17.466 12.191 17.736 12.101C18.006 12.011 18.249 11.858 18.465 11.642C18.687 11.42 18.864 11.117 18.996 10.733C19.128 10.349 19.194 9.863 19.194 9.275L20.481 9.824C20.481 10.652 20.319 11.402 19.995 12.074C19.677 12.746 19.206 13.283 18.582 13.685C17.958 14.081 17.19 14.279 16.278 14.279ZM19.455 14V10.985H19.194V4.28H21.372V14H19.455ZM28.5716 14.27C27.6236 14.27 26.8286 14.045 26.1866 13.595C25.5446 13.145 25.0616 12.533 24.7376 11.759C24.4136 10.979 24.2516 10.106 24.2516 9.14C24.2516 8.162 24.4136 7.286 24.7376 6.512C25.0616 5.738 25.5356 5.129 26.1596 4.685C26.7896 4.235 27.5666 4.01 28.4906 4.01C29.4086 4.01 30.2036 4.235 30.8756 4.685C31.5536 5.129 32.0786 5.738 32.4506 6.512C32.8226 7.28 33.0086 8.156 33.0086 9.14C33.0086 10.112 32.8256 10.985 32.4596 11.759C32.0936 12.533 31.5776 13.145 30.9116 13.595C30.2456 14.045 29.4656 14.27 28.5716 14.27ZM23.8826 18.32V4.28H25.7996V11.102H26.0696V18.32H23.8826ZM28.2386 12.326C28.8026 12.326 29.2676 12.185 29.6336 11.903C29.9996 11.621 30.2696 11.24 30.4436 10.76C30.6236 10.274 30.7136 9.734 30.7136 9.14C30.7136 8.552 30.6236 8.018 30.4436 7.538C30.2636 7.052 29.9846 6.668 29.6066 6.386C29.2286 6.098 28.7486 5.954 28.1666 5.954C27.6146 5.954 27.1646 6.089 26.8166 6.359C26.4686 6.623 26.2106 6.995 26.0426 7.475C25.8806 7.949 25.7996 8.504 25.7996 9.14C25.7996 9.77 25.8806 10.325 26.0426 10.805C26.2106 11.285 26.4716 11.66 26.8256 11.93C27.1856 12.194 27.6566 12.326 28.2386 12.326ZM39.4114 14.27C38.4274 14.27 37.5634 14.057 36.8194 13.631C36.0754 13.205 35.4934 12.614 35.0734 11.858C34.6594 11.102 34.4524 10.232 34.4524 9.248C34.4524 8.186 34.6564 7.265 35.0644 6.485C35.4724 5.699 36.0394 5.09 36.7654 4.658C37.4914 4.226 38.3314 4.01 39.2854 4.01C40.2934 4.01 41.1484 4.247 41.8504 4.721C42.5584 5.189 43.0834 5.852 43.4254 6.71C43.7674 7.568 43.8964 8.579 43.8124 9.743H41.6614V8.951C41.6554 7.895 41.4694 7.124 41.1034 6.638C40.7374 6.152 40.1614 5.909 39.3754 5.909C38.4874 5.909 37.8274 6.185 37.3954 6.737C36.9634 7.283 36.7474 8.084 36.7474 9.14C36.7474 10.124 36.9634 10.886 37.3954 11.426C37.8274 11.966 38.4574 12.236 39.2854 12.236C39.8194 12.236 40.2784 12.119 40.6624 11.885C41.0524 11.645 41.3524 11.3 41.5624 10.85L43.7044 11.498C43.3324 12.374 42.7564 13.055 41.9764 13.541C41.2024 14.027 40.3474 14.27 39.4114 14.27ZM36.0634 9.743V8.105H42.7504V9.743H36.0634ZM45.8205 14V4.28H47.7375V6.647L47.5035 6.341C47.6235 6.017 47.7825 5.723 47.9805 5.459C48.1845 5.189 48.4275 4.967 48.7095 4.793C48.9495 4.631 49.2135 4.505 49.5015 4.415C49.7955 4.319 50.0955 4.262 50.4015 4.244C50.7075 4.22 51.0045 4.232 51.2925 4.28V6.305C51.0045 6.221 50.6715 6.194 50.2935 6.224C49.9215 6.254 49.5855 6.359 49.2855 6.539C48.9855 6.701 48.7395 6.908 48.5475 7.16C48.3615 7.412 48.2235 7.7 48.1335 8.024C48.0435 8.342 47.9985 8.687 47.9985 9.059V14H45.8205ZM57.0552 14.27C56.0532 14.27 55.1982 14.048 54.4902 13.604C53.7822 13.154 53.2392 12.542 52.8612 11.768C52.4892 10.994 52.3002 10.118 52.2942 9.14C52.3002 8.144 52.4952 7.262 52.8792 6.494C53.2692 5.72 53.8212 5.114 54.5352 4.676C55.2492 4.232 56.0982 4.01 57.0822 4.01C58.1862 4.01 59.1192 4.289 59.8812 4.847C60.6492 5.399 61.1502 6.155 61.3842 7.115L59.2242 7.7C59.0562 7.178 58.7772 6.773 58.3872 6.485C57.9972 6.191 57.5532 6.044 57.0552 6.044C56.4912 6.044 56.0262 6.179 55.6602 6.449C55.2942 6.713 55.0242 7.079 54.8502 7.547C54.6762 8.015 54.5892 8.546 54.5892 9.14C54.5892 10.064 54.7962 10.811 55.2102 11.381C55.6242 11.951 56.2392 12.236 57.0552 12.236C57.6312 12.236 58.0842 12.104 58.4142 11.84C58.7502 11.576 59.0022 11.195 59.1702 10.697L61.3842 11.192C61.0842 12.182 60.5592 12.944 59.8092 13.478C59.0592 14.006 58.1412 14.27 57.0552 14.27ZM66.8327 14.279C66.1127 14.279 65.5187 14.159 65.0507 13.919C64.5827 13.679 64.2107 13.373 63.9347 13.001C63.6587 12.629 63.4547 12.233 63.3227 11.813C63.1907 11.393 63.1037 10.997 63.0617 10.625C63.0257 10.247 63.0077 9.941 63.0077 9.707V4.28H65.2037V8.96C65.2037 9.26 65.2247 9.599 65.2667 9.977C65.3087 10.349 65.4047 10.709 65.5547 11.057C65.7107 11.399 65.9387 11.681 66.2387 11.903C66.5447 12.125 66.9557 12.236 67.4717 12.236C67.7477 12.236 68.0207 12.191 68.2907 12.101C68.5607 12.011 68.8037 11.858 69.0197 11.642C69.2417 11.42 69.4187 11.117 69.5507 10.733C69.6827 10.349 69.7487 9.863 69.7487 9.275L71.0357 9.824C71.0357 10.652 70.8737 11.402 70.5497 12.074C70.2317 12.746 69.7607 13.283 69.1367 13.685C68.5127 14.081 67.7447 14.279 66.8327 14.279ZM70.0097 14V10.985H69.7487V4.28H71.9267V14H70.0097ZM80.1523 14C79.5103 14.12 78.8803 14.171 78.2623 14.153C77.6503 14.141 77.1013 14.03 76.6153 13.82C76.1293 13.604 75.7603 13.265 75.5083 12.803C75.2863 12.383 75.1693 11.954 75.1573 11.516C75.1453 11.078 75.1393 10.583 75.1393 10.031V1.58H77.2993V9.905C77.2993 10.295 77.3023 10.637 77.3083 10.931C77.3203 11.225 77.3833 11.465 77.4973 11.651C77.7133 12.011 78.0583 12.212 78.5323 12.254C79.0063 12.296 79.5463 12.272 80.1523 12.182V14ZM73.3753 5.981V4.28H80.1523V5.981H73.3753ZM86.1692 14.27C85.1852 14.27 84.3212 14.057 83.5772 13.631C82.8332 13.205 82.2512 12.614 81.8312 11.858C81.4172 11.102 81.2102 10.232 81.2102 9.248C81.2102 8.186 81.4142 7.265 81.8222 6.485C82.2302 5.699 82.7972 5.09 83.5232 4.658C84.2492 4.226 85.0892 4.01 86.0432 4.01C87.0512 4.01 87.9062 4.247 88.6082 4.721C89.3162 5.189 89.8412 5.852 90.1832 6.71C90.5252 7.568 90.6542 8.579 90.5702 9.743H88.4192V8.951C88.4132 7.895 88.2272 7.124 87.8612 6.638C87.4952 6.152 86.9192 5.909 86.1332 5.909C85.2452 5.909 84.5852 6.185 84.1532 6.737C83.7212 7.283 83.5052 8.084 83.5052 9.14C83.5052 10.124 83.7212 10.886 84.1532 11.426C84.5852 11.966 85.2152 12.236 86.0432 12.236C86.5772 12.236 87.0362 12.119 87.4202 11.885C87.8102 11.645 88.1102 11.3 88.3202 10.85L90.4622 11.498C90.0902 12.374 89.5142 13.055 88.7342 13.541C87.9602 14.027 87.1052 14.27 86.1692 14.27ZM82.8212 9.743V8.105H89.5082V9.743H82.8212ZM98.9179 14L95.1289 1.04H97.4059L99.9889 10.4L102.563 1.058L104.84 1.04L107.423 10.4L109.997 1.04H112.274L108.494 14H106.352L103.697 4.784L101.06 14H98.9179ZM116.963 14.27C115.991 14.27 115.142 14.051 114.416 13.613C113.69 13.175 113.126 12.572 112.724 11.804C112.328 11.03 112.13 10.142 112.13 9.14C112.13 8.12 112.334 7.226 112.742 6.458C113.15 5.69 113.717 5.09 114.443 4.658C115.169 4.226 116.009 4.01 116.963 4.01C117.941 4.01 118.793 4.229 119.519 4.667C120.245 5.105 120.809 5.711 121.211 6.485C121.613 7.253 121.814 8.138 121.814 9.14C121.814 10.148 121.61 11.039 121.202 11.813C120.8 12.581 120.236 13.184 119.51 13.622C118.784 14.054 117.935 14.27 116.963 14.27ZM116.963 12.236C117.827 12.236 118.469 11.948 118.889 11.372C119.309 10.796 119.519 10.052 119.519 9.14C119.519 8.198 119.306 7.448 118.88 6.89C118.454 6.326 117.815 6.044 116.963 6.044C116.381 6.044 115.901 6.176 115.523 6.44C115.151 6.698 114.875 7.061 114.695 7.529C114.515 7.991 114.425 8.528 114.425 9.14C114.425 10.082 114.638 10.835 115.064 11.399C115.496 11.957 116.129 12.236 116.963 12.236ZM123.797 14V4.28H125.714V6.647L125.48 6.341C125.6 6.017 125.759 5.723 125.957 5.459C126.161 5.189 126.404 4.967 126.686 4.793C126.926 4.631 127.19 4.505 127.478 4.415C127.772 4.319 128.072 4.262 128.378 4.244C128.684 4.22 128.981 4.232 129.269 4.28V6.305C128.981 6.221 128.648 6.194 128.27 6.224C127.898 6.254 127.562 6.359 127.262 6.539C126.962 6.701 126.716 6.908 126.524 7.16C126.338 7.412 126.2 7.7 126.11 8.024C126.02 8.342 125.975 8.687 125.975 9.059V14H123.797ZM131.167 14V0.77H133.336V14H131.167ZM139.928 14.27C139.034 14.27 138.254 14.045 137.588 13.595C136.922 13.145 136.406 12.533 136.04 11.759C135.674 10.985 135.491 10.112 135.491 9.14C135.491 8.156 135.674 7.28 136.04 6.512C136.412 5.738 136.937 5.129 137.615 4.685C138.293 4.235 139.091 4.01 140.009 4.01C140.933 4.01 141.707 4.235 142.331 4.685C142.961 5.129 143.438 5.738 143.762 6.512C144.086 7.286 144.248 8.162 144.248 9.14C144.248 10.106 144.086 10.979 143.762 11.759C143.438 12.533 142.955 13.145 142.313 13.595C141.671 14.045 140.876 14.27 139.928 14.27ZM140.261 12.326C140.843 12.326 141.311 12.194 141.665 11.93C142.025 11.66 142.286 11.285 142.448 10.805C142.616 10.325 142.7 9.77 142.7 9.14C142.7 8.504 142.616 7.949 142.448 7.475C142.286 6.995 142.031 6.623 141.683 6.359C141.335 6.089 140.885 5.954 140.333 5.954C139.751 5.954 139.271 6.098 138.893 6.386C138.515 6.668 138.236 7.052 138.056 7.538C137.876 8.018 137.786 8.552 137.786 9.14C137.786 9.734 137.873 10.274 138.047 10.76C138.227 11.24 138.5 11.621 138.866 11.903C139.232 12.185 139.697 12.326 140.261 12.326ZM142.7 14V7.178H142.43V1.04H144.617V14H142.7ZM154.251 7.79V1.04H155.484L157.806 4.676L160.128 1.04H161.361L161.37 7.79H159.894V3.911L158.229 6.593H157.383L155.718 3.911V7.79H154.251ZM149.211 7.79V2.426H146.961V1.04H152.991V2.426H150.75V7.79H149.211Z" fill="#121314"/>
</svg>
