<svg width="43" height="36" viewBox="0 0 43 36" fill="none" xmlns="http://www.w3.org/2000/svg">
<path d="M10.6942 6.87478L6.34615 1.31274H1.99805M10.6942 6.87478L15.0423 25.4149H37.6525L42.0006 6.87478H10.6942Z" stroke="#121314" stroke-width="2" stroke-linecap="round" stroke-linejoin="round"/>
<path d="M17.6479 34.6873C19.0888 34.6873 20.2568 33.4422 20.2568 31.9063C20.2568 30.3703 19.0888 29.1252 17.6479 29.1252C16.2071 29.1252 15.0391 30.3703 15.0391 31.9063C15.0391 33.4422 16.2071 34.6873 17.6479 34.6873Z" stroke="#121314" stroke-width="2" stroke-linecap="round" stroke-linejoin="round"/>
<path d="M35.0385 34.6873C36.4794 34.6873 37.6474 33.4422 37.6474 31.9063C37.6474 30.3703 36.4794 29.1252 35.0385 29.1252C33.5977 29.1252 32.4297 30.3703 32.4297 31.9063C32.4297 33.4422 33.5977 34.6873 35.0385 34.6873Z" stroke="#121314" stroke-width="2" stroke-linecap="round" stroke-linejoin="round"/>
</svg>
