<svg width="20" height="21" viewBox="0 0 20 21" fill="none" xmlns="http://www.w3.org/2000/svg">
<path fill-rule="evenodd" clip-rule="evenodd" d="M3 8.75C3.41421 8.75 3.75 9.08579 3.75 9.5V18.75H16.25V9.5C16.25 9.08579 16.5858 8.75 17 8.75C17.4142 8.75 17.75 9.08579 17.75 9.5V18.9C17.75 19.258 17.6078 19.6014 17.3546 19.8546C17.1014 20.1078 16.758 20.25 16.4 20.25H3.6C3.24196 20.25 2.89858 20.1078 2.64541 19.8546C2.39223 19.6014 2.25 19.258 2.25 18.9V9.5C2.25 9.08579 2.58579 8.75 3 8.75Z" fill="#B6B6AF"/>
<path fill-rule="evenodd" clip-rule="evenodd" d="M8 8.75C8.41421 8.75 8.75 9.08579 8.75 9.5V15.5C8.75 15.9142 8.41421 16.25 8 16.25C7.58579 16.25 7.25 15.9142 7.25 15.5V9.5C7.25 9.08579 7.58579 8.75 8 8.75Z" fill="#B6B6AF"/>
<path fill-rule="evenodd" clip-rule="evenodd" d="M12 8.75C12.4142 8.75 12.75 9.08579 12.75 9.5V15.5C12.75 15.9142 12.4142 16.25 12 16.25C11.5858 16.25 11.25 15.9142 11.25 15.5V9.5C11.25 9.08579 11.5858 8.75 12 8.75Z" fill="#B6B6AF"/>
<path fill-rule="evenodd" clip-rule="evenodd" d="M6.75 2.25V4.75H13.25V2.25H6.75ZM1 6.25C0.585786 6.25 0.25 5.91421 0.25 5.5C0.25 5.08579 0.585786 4.75 1 4.75H5.25V2.1C5.25 1.74196 5.39223 1.39858 5.64541 1.14541C5.89858 0.892231 6.24196 0.75 6.6 0.75H13.4C13.758 0.75 14.1014 0.892231 14.3546 1.14541C14.6078 1.39858 14.75 1.74196 14.75 2.1V4.75H19C19.4142 4.75 19.75 5.08579 19.75 5.5C19.75 5.91421 19.4142 6.25 19 6.25H1Z" fill="#B6B6AF"/>
</svg>
