<svg width="32" height="32" viewBox="0 0 32 32" fill="none" xmlns="http://www.w3.org/2000/svg">
<path d="M11.7267 22.7804C11.1222 23.6622 10.4748 24.5137 9.78667 25.3318C4.86667 25.1918 3 21.9984 3 21.9984C3.06993 17.4738 4.16639 13.0242 6.20667 8.98511C8.00012 7.58207 10.1854 6.77132 12.46 6.66511L13.1267 8.20511C14.0788 8.07293 15.0387 8.00389 16 7.99845C16.9656 8.00162 17.9299 8.06844 18.8867 8.19845L19.5533 6.65845C21.8301 6.77041 24.0157 7.58823 25.8067 8.99845C27.8404 13.0346 28.9322 17.4794 29 21.9984C29 21.9984 27.1333 25.1918 22.2133 25.3318C21.5356 24.5176 20.8993 23.6699 20.3067 22.7918M24.6133 20.8584C22.0533 22.1551 19.576 23.4518 16 23.4518C12.424 23.4518 9.94667 22.1551 7.38667 20.8584" stroke="#505049" stroke-width="2"/>
<path d="M11.8993 19.7196C13.1328 19.7196 14.1327 18.7197 14.1327 17.4863C14.1327 16.2528 13.1328 15.2529 11.8993 15.2529C10.6659 15.2529 9.66602 16.2528 9.66602 17.4863C9.66602 18.7197 10.6659 19.7196 11.8993 19.7196Z" stroke="#505049" stroke-width="2"/>
<path d="M20.1025 19.7196C21.3359 19.7196 22.3358 18.7197 22.3358 17.4863C22.3358 16.2528 21.3359 15.2529 20.1025 15.2529C18.869 15.2529 17.8691 16.2528 17.8691 17.4863C17.8691 18.7197 18.869 19.7196 20.1025 19.7196Z" stroke="#505049" stroke-width="2"/>
</svg>
