<svg width="48" height="47" viewBox="0 0 48 47" fill="none" xmlns="http://www.w3.org/2000/svg">
<path d="M41.4033 0.789551C44.4513 0.789551 46.9059 2.95371 47.0506 5.50332V46.4711L41.2505 42.1442L38.0675 39.6017L34.5871 36.9394L36.0355 41.1335H5.6141C2.57423 41.1335 0.11145 39.1107 0.11145 36.4197V5.51188C0.11145 2.96228 2.57586 0.798116 5.62385 0.798116H41.387L41.4033 0.789551ZM28.1433 11.6075H28.075L27.6344 11.9872C32.1308 13.1321 34.3059 14.9166 34.3059 14.9166C31.4107 13.6446 28.7935 13.0051 26.186 12.7453C24.3068 12.4926 22.4179 12.6268 20.8264 12.7453H20.3859C19.3699 12.7453 17.203 13.1321 14.298 14.15C13.2902 14.5368 12.7066 14.7895 12.7066 14.7895C12.7066 14.7895 14.8735 12.878 19.6658 11.8602L19.3699 11.6075C19.3699 11.6075 15.7464 11.4805 11.8353 14.0244C11.8353 14.0244 7.92407 20.0101 7.92407 27.3848C7.92407 27.3848 10.091 30.6938 16.0358 30.8195C16.0358 30.8195 16.9071 29.8088 17.7801 28.9165C14.4443 28.0243 13.1406 26.2399 13.1406 26.2399C13.1406 26.2399 13.4365 26.3669 13.8689 26.6196H13.9957C14.064 26.6196 14.0981 26.6496 14.1306 26.6796V26.6938C14.1647 26.7238 14.1989 26.7452 14.2574 26.7452C14.9775 27.0051 15.6879 27.2577 16.2731 27.5104C17.2891 27.8901 18.5847 28.2756 20.1762 28.5297C22.1919 28.7895 24.5019 28.9094 27.1354 28.5297C28.431 28.2699 29.7347 28.0243 31.0384 27.5104C31.8773 27.1307 32.9176 26.7524 34.0604 26.1057C34.0604 26.1057 32.7648 27.8901 29.2844 28.7823C29.9964 29.6674 31.0027 30.6853 31.0027 30.6853C36.954 30.5668 39.2656 27.2577 39.3924 27.3991C39.3924 20.0315 35.4552 14.0386 35.4552 14.0386C31.9163 11.726 28.5968 11.6375 28.0132 11.6375L28.1319 11.6004L28.1433 11.6075ZM28.5074 20.0101C30.0322 20.0101 31.2595 21.1478 31.2595 22.5454C31.2595 23.9587 30.0241 25.095 28.5074 25.095C26.9826 25.095 25.7553 23.9572 25.7553 22.5597C25.7553 21.1464 26.9907 20.0101 28.5074 20.0101ZM18.6611 20.0101C20.1762 20.0101 21.4052 21.1478 21.4052 22.5454C21.4052 23.9587 20.1697 25.095 18.653 25.095C17.1282 25.095 15.8928 23.9572 15.8928 22.5597C15.8928 21.1464 17.1282 20.0101 18.653 20.0101H18.6611Z" fill="white"/>
</svg>
