<svg width="51" height="31" viewBox="0 0 51 31" fill="none" xmlns="http://www.w3.org/2000/svg">
<path d="M6.18795 6.73348C6.25007 6.27154 6.01602 5.81497 5.55772 5.50407L0.889382 1.27142V0.63916H15.3846L26.5886 19.1329L36.4388 0.63916H50.2571V1.27142L46.2657 4.15173C45.9216 4.34915 45.7509 4.67361 45.8222 4.99475V26.158C45.7509 26.4791 45.9216 26.8036 46.2657 27.001L50.1637 29.8813V30.5136H30.5567V29.8813L34.5948 26.9308C34.9916 26.6322 34.9916 26.5444 34.9916 26.0878V8.98152L23.7643 30.4433H22.247L9.17569 8.98152V23.3655C9.0667 23.9703 9.33356 24.5791 9.89928 25.0164L15.1512 29.8111V30.4433H0.259155V29.8111L5.51104 25.0164C6.07264 24.5784 6.32394 23.9655 6.18795 23.3655V6.73348Z" fill="white"/>
</svg>
