<svg width="22" height="21" viewBox="0 0 22 21" fill="none" xmlns="http://www.w3.org/2000/svg">
<path d="M2.31934 14.0963L2.51957 14.8622C3.00902 16.727 3.58746 17.9733 5.1893 18.8772L5.79444 19.2007C5.94128 19.2816 6.15931 19.3434 6.41293 19.3862C7.33844 19.5337 8.2773 19.3149 9.07822 18.7916L10.7602 17.6927L11.7101 17.5333M16.0118 17.374H14.0316M7.16046 8.60185L7.67216 9.13941C7.96583 9.44386 8.45528 9.22028 8.45528 8.78262V2.42237C8.45528 1.63745 9.05152 1 9.7857 1C10.5199 1 11.1161 1.63745 11.1161 2.42237V12.7976C11.1161 13.3114 11.3075 13.8014 11.6456 14.1629C11.7069 14.2284 11.7722 14.2888 11.8408 14.3438M14.0316 14.729H15.1902" stroke="#6B6B61" stroke-linejoin="round"/>
<path d="M2.876 14.0868C2.3109 14.2628 1.71911 13.9156 1.55448 13.3066L1.04278 11.4276C0.878143 10.8234 1.20296 10.1907 1.77251 10.0147C2.3376 9.83872 2.92939 10.186 3.09403 10.7949L3.60128 12.6692C3.76591 13.2781 3.44109 13.9108 2.876 14.0868Z" stroke="#6B6B61" stroke-linejoin="round"/>
<path d="M4.82054 13.9344C4.2332 14.0106 3.7037 13.5634 3.63251 12.9354L3.34774 10.3809C3.27655 9.75294 3.6948 9.18685 4.28215 9.11073C4.86949 9.03462 5.39899 9.48179 5.47018 10.1097L5.75495 12.6643C5.8217 13.2922 5.40344 13.8583 4.82054 13.9344Z" stroke="#6B6B61" stroke-linejoin="round"/>
<path d="M6.885 13.1686C6.29765 13.2447 5.76816 12.7975 5.69696 12.1696L5.41219 9.61501C5.341 8.98708 5.75926 8.42098 6.3466 8.34487C6.93394 8.26875 7.46344 8.71592 7.53463 9.34386L7.8194 11.8984C7.88615 12.5264 7.46789 13.0925 6.885 13.1686Z" stroke="#6B6B61" stroke-linejoin="round"/>
<path d="M20.0048 6.22821L20.8902 10.2194L21.1883 12.1984C21.2462 12.5789 21.0415 12.95 20.7033 13.0784C20.3251 13.2259 19.9069 13.0309 19.7511 12.6313L19.6888 12.4695C19.6354 12.3268 19.4886 12.2555 19.3507 12.2983C19.1949 12.3458 19.1104 12.5219 19.1638 12.6836L19.5153 13.7968C19.671 14.2867 19.4085 14.81 18.9413 14.9432C18.5854 15.0431 18.2071 14.8861 18.0158 14.5531L17.1837 13.1165C17.1081 13.0166 16.9613 13.1022 17.0013 13.2259L18.5364 17.9592C18.7366 18.5824 18.3495 19.2389 17.7399 19.315C17.2994 19.3673 16.8812 19.0914 16.7254 18.649L14.5 11.5C14.4555 11.3716 14.2731 11.4001 14.2731 11.5428L14.1313 18.9963C14.1224 19.5529 13.6953 20 13.1702 20H13.0501C12.525 20 12.0934 19.5481 12.089 18.982L12 9.94351L13.1302 4.49187C13.3972 3.2027 14.4295 2.25603 15.662 2.1704L17.691 2.02769C18.0292 2.00391 18.3584 2.16565 18.5542 2.46059L18.8568 3.04095C19.3685 4.03995 19.76 5.1103 20.0048 6.22821Z" stroke="#6B6B61" stroke-linejoin="round"/>
</svg>
