<svg width="34" height="38" viewBox="0 0 34 38" fill="none" xmlns="http://www.w3.org/2000/svg">
<path d="M27.2036 12.8797C27.2036 9.99366 26.1287 7.22495 24.2155 5.18414C22.3005 3.14332 19.7036 1.99536 16.9995 1.99536C14.2937 1.99536 11.6985 3.14162 9.7835 5.18414C7.87023 7.22495 6.7954 9.99366 6.7954 12.8797C6.7954 25.5787 1.69336 29.2062 1.69336 29.2062H32.3056C32.3056 29.2062 27.2036 25.5787 27.2036 12.8797Z" stroke="#121314" stroke-width="2" stroke-linecap="round" stroke-linejoin="round"/>
<path d="M19.9429 34.3083C19.6443 34.8242 19.2153 35.2525 18.6989 35.5502C18.1825 35.848 17.5969 36.0047 17.0008 36.0047C16.4047 36.0047 15.8191 35.848 15.3027 35.5502C14.7863 35.2525 14.3572 34.8242 14.0586 34.3083" stroke="#121314" stroke-width="2" stroke-linecap="round" stroke-linejoin="round"/>
</svg>
