<svg width="16" height="16" viewBox="0 0 16 16" fill="none" xmlns="http://www.w3.org/2000/svg">
<path d="M11.5 11.5L15 15" stroke="#1E1D21" stroke-width="1.5" stroke-linecap="round" stroke-linejoin="round"/>
<path d="M1 7C1 7.78793 1.15519 8.56815 1.45672 9.2961C1.75825 10.0241 2.20021 10.6855 2.75736 11.2426C3.31451 11.7998 3.97595 12.2417 4.7039 12.5433C5.43185 12.8448 6.21207 13 7 13C7.78793 13 8.56815 12.8448 9.2961 12.5433C10.0241 12.2417 10.6855 11.7998 11.2426 11.2426C11.7998 10.6855 12.2417 10.0241 12.5433 9.2961C12.8448 8.56815 13 7.78793 13 7C13 5.4087 12.3679 3.88258 11.2426 2.75736C10.1174 1.63214 8.5913 1 7 1C5.4087 1 3.88258 1.63214 2.75736 2.75736C1.63214 3.88258 1 5.4087 1 7V7Z" stroke="#1E1D21" stroke-width="1.5" stroke-linecap="round" stroke-linejoin="round"/>
</svg>
