<svg width="27" height="17" viewBox="0 0 27 17" fill="none" xmlns="http://www.w3.org/2000/svg">
<path d="M10.2143 6.7782C12.3412 6.7782 14.0654 5.82394 14.0654 4.64679C14.0654 3.46965 12.3412 2.51538 10.2143 2.51538C8.08746 2.51538 6.36328 3.46965 6.36328 4.64679C6.36328 5.82394 8.08746 6.7782 10.2143 6.7782Z" stroke="#6B6B61" stroke-linecap="round" stroke-linejoin="round"/>
<path d="M10 9.91177C14.9706 9.91177 19 7.80487 19 5.20588C19 2.6069 14.9706 0.5 10 0.5C5.02944 0.5 1 2.6069 1 5.20588C1 7.80487 5.02944 9.91177 10 9.91177Z" stroke="#6B6B61" stroke-linecap="round" stroke-linejoin="round"/>
<path d="M1 5.20605V11.3475C1 14.1884 5.02692 16.5002 10 16.5002C14.9731 16.5002 19 14.1884 19 11.3475V5.20605" stroke="#6B6B61" stroke-linecap="round" stroke-linejoin="round"/>
<path d="M19 4.26465C19 4.26465 20.4306 6.37148 22.3744 6.45632C24.3183 6.54116 26 6.45632 26 6.45632V12.7203C26 12.7203 23.7395 12.8192 21.9485 12.5082C20.3105 12.2254 19 10.7266 19 10.7266V4.26465Z" stroke="#6B6B61" stroke-linecap="round" stroke-linejoin="round"/>
<path d="M4.5 11.794C4.5 12.0701 4.72386 12.294 5 12.294C5.27614 12.294 5.5 12.0701 5.5 11.794H4.5ZM5.5 11.794V8.97046H4.5V11.794H5.5Z" fill="#6B6B61"/>
<path d="M9 13.6763V9.91162" stroke="#6B6B61" stroke-linecap="round" stroke-linejoin="round"/>
<path d="M13 12.7352V9.91162" stroke="#6B6B61" stroke-linecap="round" stroke-linejoin="round"/>
<path d="M16.5 10.8531C16.5 11.1292 16.7239 11.3531 17 11.3531C17.2761 11.3531 17.5 11.1292 17.5 10.8531H16.5ZM17.5 10.8531V8.02954H16.5V10.8531H17.5Z" fill="#6B6B61"/>
<path d="M23 12.7352V7.08813" stroke="#6B6B61" stroke-linecap="round" stroke-linejoin="round"/>
</svg>
