<svg width="48" height="42" viewBox="0 0 48 42" fill="none" xmlns="http://www.w3.org/2000/svg">
<path d="M24.3247 0.335693C11.3589 0.335693 0.855103 9.5611 0.855103 20.9459C0.855103 32.3308 11.3604 41.5562 24.3247 41.5562C37.2905 41.5562 47.7942 32.3308 47.7942 20.9459C47.7942 9.5611 37.289 0.335693 24.3247 0.335693ZM35.852 14.4557L32 30.3961C31.7153 31.5263 30.9491 31.8002 29.8801 31.2683L24.0127 27.4707L21.1828 29.8642C20.8709 30.1381 20.6059 30.3708 20.0002 30.3708L20.4166 25.1265L31.2898 16.4994C31.7638 16.1338 31.1854 15.9263 30.56 16.292L17.1218 23.721L11.3301 22.1333C10.0718 21.785 10.0431 21.0284 11.5951 20.4965L34.2228 12.8335C35.2736 12.501 36.1912 13.0582 35.8505 14.4544L35.852 14.4557Z" fill="white"/>
</svg>
