<svg width="48" height="35" viewBox="0 0 48 35" fill="none" xmlns="http://www.w3.org/2000/svg">
<path d="M47.3014 4.72253C45.575 5.38721 43.7267 5.8445 41.7788 6.05189C43.7663 5.00464 45.286 3.34809 46.0106 1.37466C44.1462 2.32788 42.0839 3.01833 39.8909 3.40863C38.1424 1.76497 35.6429 0.730591 32.8691 0.730591C27.5518 0.730591 23.2422 4.51386 23.2422 9.17692C23.2422 9.84804 23.3346 10.4921 23.4945 11.1027C15.4958 10.7742 8.40503 7.39929 3.66271 2.30083C2.82954 3.5426 2.35575 4.98531 2.35575 6.55556C2.35575 9.4938 4.05876 12.0701 6.63308 13.5849C5.05915 13.545 3.57763 13.1624 2.27947 12.5325V12.6343C2.27947 16.7319 5.59455 20.148 9.99509 20.926C9.19273 21.1128 8.33609 21.221 7.46625 21.221C6.84871 21.221 6.25903 21.1682 5.67083 21.0729C6.90885 24.4272 10.4528 26.8695 14.6773 26.9429C11.393 29.2036 7.23009 30.551 2.74447 30.551C1.98024 30.551 1.21748 30.5188 0.451782 30.4377C4.73058 32.8336 9.78093 34.2351 15.2361 34.2351C32.9366 34.2351 42.609 21.3601 42.609 10.21C42.609 9.85448 42.609 9.49251 42.5782 9.12926C44.466 7.94804 46.1001 6.45122 47.3909 4.75474L47.3014 4.72253Z" fill="white"/>
</svg>
