<svg width="32" height="32" viewBox="0 0 32 32" fill="none" xmlns="http://www.w3.org/2000/svg">
<path d="M30.6673 4.01341C30.6673 4.01341 27.9766 5.60274 26.4806 6.05341C25.6776 5.13009 24.6104 4.47566 23.4234 4.17864C22.2363 3.88162 20.9866 3.95634 19.8434 4.39268C18.7002 4.82902 17.7186 5.60594 17.0313 6.61836C16.344 7.63078 15.9842 8.82986 16.0007 10.0534V11.3867C13.6575 11.4475 11.3357 10.9278 9.242 9.874C7.14831 8.82018 5.34774 7.26492 4.00065 5.34674C4.00065 5.34674 -1.33268 17.3467 10.6673 22.6801C7.92135 24.544 4.65019 25.4786 1.33398 25.3467C13.334 32.0134 28.0006 25.3467 28.0006 10.0134C28.0006 9.64274 27.9633 9.27207 27.894 8.90674C29.254 7.56541 30.6673 4.01341 30.6673 4.01341Z" stroke="#505049" stroke-width="2" stroke-linecap="round" stroke-linejoin="round"/>
</svg>
