<svg width="18" height="16" viewBox="0 0 18 16" fill="none" xmlns="http://www.w3.org/2000/svg">
<path d="M14.0529 3.40498L13.2108 4.235M1.84239 15.4402C1.2807 14.8866 4.58933 10.2642 11.7666 1.57148C12.0224 1.26182 12.3403 1.00747 12.7003 0.82431C13.0603 0.641154 13.4548 0.533125 13.8591 0.50697C14.2633 0.480815 14.6688 0.537096 15.05 0.672296C15.4312 0.807497 15.7801 1.01872 16.0747 1.29276C16.3694 1.56681 16.6036 1.89779 16.7627 2.26505C16.9218 2.63231 17.0024 3.02796 16.9994 3.42728C16.9964 3.82661 16.9099 4.22104 16.7453 4.58594C16.5807 4.95084 16.3416 5.27837 16.0428 5.54809C7.13754 12.6962 2.40407 15.9939 1.84239 15.4402Z" stroke="#6B6B61" stroke-linecap="round" stroke-linejoin="round"/>
<path d="M13.6316 3.82007C11.6669 1.60641 10.6842 0.5 9.42105 0.5C8.15789 0.5 7.73684 1.33002 7.73684 2.16003C7.73684 5.4801 14.6093 9.13716 12.7895 11.2902C11.9002 12.3427 9.95747 12.3568 7.94737 11.9609M4.14863 10.813C2.97558 10.344 1 9.21518 1 7.97016M15.7368 5.89511L17 7.14014" stroke="#6B6B61" stroke-linecap="round" stroke-linejoin="round"/>
</svg>
