<svg width="32" height="32" viewBox="0 0 32 32" fill="none" xmlns="http://www.w3.org/2000/svg">
<path d="M15.9991 28.1905C22.7317 28.1905 28.1895 22.7327 28.1895 16C28.1895 9.26743 22.7317 3.80957 15.9991 3.80957C9.26646 3.80957 3.80859 9.26743 3.80859 16C3.80859 22.7327 9.26646 28.1905 15.9991 28.1905Z" stroke="#505049" stroke-width="2" stroke-linecap="round" stroke-linejoin="round"/>
<path d="M4.62109 11.9366H27.3766M4.62109 20.0635H27.3766M15.3216 3.80957C13.0398 7.46619 11.83 11.6899 11.83 16C11.83 20.3102 13.0398 24.5339 15.3216 28.1905M16.6761 3.80957C18.958 7.46619 20.1677 11.6899 20.1677 16C20.1677 20.3102 18.958 24.5339 16.6761 28.1905" stroke="#505049" stroke-width="2" stroke-linecap="round" stroke-linejoin="round"/>
</svg>
