<svg width="20" height="17" viewBox="0 0 20 17" fill="none" xmlns="http://www.w3.org/2000/svg">
<path d="M9.63324 0.962646C12.3144 0.962646 14.5971 1.7376 16.4797 3.28676C17.3807 4.03295 18.0657 4.88577 18.5336 5.84448C19.0012 6.80344 19.2357 7.82117 19.2357 8.89817C19.2357 9.98459 19.0042 11.0026 18.5426 11.9516C18.0804 12.9009 17.3984 13.7396 16.4974 14.4669C15.5619 15.232 14.5007 15.8179 13.3136 16.2241C12.1272 16.6303 10.9003 16.8334 9.63384 16.8334C8.3674 16.8334 7.15489 16.6331 5.99659 16.2311C4.83858 15.8298 3.8001 15.2488 2.88142 14.4885C1.96275 13.7282 1.26394 12.8706 0.78468 11.9164C0.305424 10.9621 0.0657959 9.95632 0.0657959 8.89817C0.0657959 7.84944 0.30812 6.84113 0.793066 5.87275C1.27801 4.90437 1.98282 4.03766 2.90688 3.27238C4.73255 1.73289 6.97457 0.962646 9.63324 0.962646ZM9.66798 2.39402C7.47719 2.39402 5.63415 3.02712 4.13917 4.29284C3.38584 4.92594 2.80684 5.63667 2.40187 6.42551C1.9963 7.21435 1.79411 8.03865 1.79411 8.89841C1.79411 9.74875 1.9963 10.5683 2.40187 11.3567C2.80714 12.146 3.38584 12.8498 4.13917 13.4685C4.8922 14.0875 5.74198 14.5594 6.68971 14.8858C7.63654 15.2116 8.6295 15.3745 9.66798 15.3745C10.6948 15.3745 11.6898 15.2096 12.6552 14.8788C13.6194 14.5478 14.4887 14.0711 15.2651 13.4477C16.7598 12.2385 17.5068 10.7223 17.5068 8.89866C17.5068 8.02005 17.3127 7.18881 16.9248 6.40468C16.5375 5.62055 15.9723 4.92173 15.2312 4.30722C13.6898 3.03183 11.836 2.39402 9.66798 2.39402ZM9.54787 7.58062L8.26376 8.13338C8.12658 7.89755 7.95854 7.73189 7.75905 7.63741C7.55926 7.54318 7.37385 7.49581 7.20251 7.49581C6.34704 7.49581 5.91871 7.96326 5.91871 8.89866C5.91871 9.32371 6.02714 9.66345 6.2437 9.91862C6.46057 10.1738 6.78017 10.3015 7.20251 10.3015C7.76174 10.3015 8.15533 10.0746 8.38388 9.62129L9.56464 10.1173C9.31363 10.5049 8.96558 10.8094 8.52047 11.0313C8.07596 11.2535 7.58502 11.3644 7.04855 11.3644C6.19278 11.3644 5.50205 11.1474 4.97727 10.7124C4.45248 10.278 4.19009 9.67337 4.19009 8.89891C4.19009 8.14305 4.45548 7.54342 4.98596 7.09928C5.51643 6.65539 6.18679 6.4332 6.99733 6.4332C8.18439 6.4327 9.03417 6.81534 9.54787 7.58062ZM15.0764 7.58062L13.8097 8.13338C13.6728 7.89755 13.5041 7.73189 13.3046 7.63741C13.1045 7.54318 12.9131 7.49581 12.7313 7.49581C11.8756 7.49581 11.4472 7.96326 11.4472 8.89866C11.4472 9.32371 11.556 9.66345 11.7725 9.91862C11.9891 10.1738 12.3084 10.3015 12.7313 10.3015C13.29 10.3015 13.6838 10.0746 13.9118 9.62129L15.1099 10.1173C14.8478 10.5049 14.4938 10.8094 14.0493 11.0313C13.6042 11.2535 13.1192 11.3644 12.5944 11.3644C11.727 11.3644 11.0342 11.1474 10.5154 10.7124C9.99538 10.278 9.73598 9.67337 9.73598 8.89891C9.73598 8.14305 10.0011 7.54342 10.5321 7.09928C11.0623 6.65539 11.7327 6.4332 12.5429 6.4332C13.7297 6.4327 14.5747 6.81534 15.0764 7.58062Z" fill="white"/>
</svg>
