<svg width="19" height="17" viewBox="0 0 19 17" fill="none" xmlns="http://www.w3.org/2000/svg">
<path d="M9.24079 0.962646C11.7746 0.962646 13.9121 1.72767 15.652 3.25821C17.4021 4.79817 18.278 6.67812 18.278 8.89804C18.278 11.1276 17.4185 12.9838 15.6999 14.4667C13.8743 16.0446 11.7213 16.8334 9.24079 16.8334C6.80255 16.8334 4.68709 16.0538 2.89385 14.495C1.12205 12.9362 0.235718 11.0709 0.235718 8.89804C0.235718 6.72548 1.12205 4.84553 2.89385 3.25846C4.63381 1.72767 6.74898 0.962646 9.24079 0.962646ZM9.27293 2.39399C7.22175 2.39399 5.48743 3.02709 4.0697 4.29278C2.59813 5.61552 1.86262 7.15077 1.86262 8.89829C1.86262 10.6555 2.59277 12.1766 4.05307 13.4606C5.51365 14.7457 7.25332 15.3877 9.27237 15.3877C11.2804 15.3877 13.0314 14.7412 14.5241 13.4465C15.9418 12.2468 16.6505 10.7306 16.6505 8.89779C16.6505 7.09348 15.9308 5.55873 14.4922 4.29254C13.0534 3.02684 11.3134 2.39399 9.27293 2.39399ZM11.6895 6.92833V10.1732H10.6588V14.0273H7.85548V10.1734H6.82482V6.92833C6.82482 6.78648 6.8812 6.66621 6.99368 6.56702C7.10673 6.46808 7.24374 6.41823 7.40443 6.41823H11.1099C11.2601 6.41823 11.3946 6.46783 11.5124 6.56702C11.63 6.66621 11.6895 6.78673 11.6895 6.92833ZM8.0001 4.88794C8.0001 4.14201 8.41874 3.76855 9.25686 3.76855C10.095 3.76855 10.5133 4.14152 10.5133 4.88794C10.5133 5.62469 10.0944 5.99319 9.25686 5.99319C8.4193 5.99319 8.0001 5.62469 8.0001 4.88794Z" fill="white"/>
</svg>
