<svg width="20" height="17" viewBox="0 0 20 17" fill="none" xmlns="http://www.w3.org/2000/svg">
<path d="M9.84597 0.962646C12.5271 0.962646 14.7975 1.73263 16.6579 3.27259C18.5174 4.80313 19.448 6.67812 19.448 8.89804C19.448 11.1185 18.5347 12.9791 16.7088 14.4811C14.7807 16.0493 12.4926 16.8334 9.84597 16.8334C7.25533 16.8334 5.00766 16.054 3.10235 14.4952C1.2198 12.9367 0.278076 11.0713 0.278076 8.89829C0.278076 6.73515 1.2198 4.85992 3.10235 3.27284C4.96213 1.73263 7.2101 0.962646 9.84597 0.962646ZM9.88011 2.39399C7.70073 2.39399 5.85802 3.0318 4.35169 4.30717C2.78814 5.62048 2.00666 7.15077 2.00666 8.89804C2.00666 10.6649 2.78245 12.1855 4.33401 13.4609C5.88588 14.7459 7.73428 15.388 9.87952 15.388C12.0131 15.388 13.8734 14.741 15.4595 13.4468C16.9658 12.2376 17.7188 10.7214 17.7188 8.89804C17.7188 7.08456 16.9541 5.55402 15.4256 4.30717C13.9079 3.03131 12.0592 2.39399 9.88011 2.39399ZM5.60103 7.77841C5.78344 6.80533 6.2567 6.05196 7.0214 5.51831C7.7858 4.98465 8.71554 4.71782 9.81122 4.71782C11.317 4.71782 12.5157 5.11955 13.4056 5.92202C14.2955 6.72498 14.7406 7.75485 14.7406 9.01112C14.7406 10.2299 14.2784 11.243 13.3547 12.0504C12.4297 12.8578 11.2322 13.262 9.7597 13.262C8.6757 13.262 7.73997 12.993 6.95281 12.4543C6.16534 11.9157 5.69208 11.1507 5.53213 10.1588H7.94605C8.00296 11.1224 8.70476 11.6043 10.0514 11.6043C10.7242 11.6043 11.2666 11.3632 11.6773 10.8816C12.0885 10.4001 12.294 9.7573 12.294 8.95458C12.294 8.11368 12.1056 7.47389 11.7294 7.03446C11.3526 6.59529 10.8111 6.37558 10.103 6.37558C8.82457 6.37558 8.106 6.84302 7.94635 7.77816H8.64815L6.74853 9.3511L4.84861 7.77816L5.60103 7.77841Z" fill="white"/>
</svg>
